<svg xmlns="http://www.w3.org/2000/svg" viewBox="0 0 385 513"><defs><style>.cls-1,.cls-2{fill:#557bff;}.cls-1,.cls-2,.cls-3{stroke:#000;stroke-miterlimit:10;}.cls-1{opacity:0.4;}.cls-1,.cls-3{isolation:isolate;}.cls-3{fill:none;}</style></defs><g id="Layer_2" data-name="Layer 2"><g id="Layer_1-2" data-name="Layer 1"><path class="cls-1" d="M256.5.5H24.5A23.94,23.94,0,0,0,.5,24.38h0V488.5a23.94,23.94,0,0,0,23.88,24H360.5a23.94,23.94,0,0,0,24-23.88h0V128.5h-112a16,16,0,0,1-16-16Z"/><path class="cls-2" d="M384.5,122.4v6.1h-112a16,16,0,0,1-16-16V.5h6.1a24,24,0,0,1,17,7l97.9,98A23.9,23.9,0,0,1,384.5,122.4Z"/><path class="cls-3" d="M256.5.5H24.5A23.94,23.94,0,0,0,.5,24.38h0V488.5a23.94,23.94,0,0,0,23.88,24H360.5a23.94,23.94,0,0,0,24-23.88h0V128.5h-112a16,16,0,0,1-16-16Z"/><path d="M96.62,248v-18h11.93v2.41H99.16v6.15h7.11v2.41H99.16V248Z"/><path d="M111.85,248v-2.21H117v-9h-4.37V234.5h7.06v11.25h4.14V248Zm6.32-15.59a1.88,1.88,0,0,1-1.87-1.88,1.77,1.77,0,0,1,.55-1.33,1.87,1.87,0,0,1,3.2,1.33,1.86,1.86,0,0,1-1.88,1.88Z"/><path d="M134.55,248.21a4.12,4.12,0,0,1-3.38-1.27,6.4,6.4,0,0,1-1-4.06V231.12h-4v-2.21h6.66v13.84a6,6,0,0,0,.2,1.74,1.58,1.58,0,0,0,.79,1,3.84,3.84,0,0,0,1.75.32,10,10,0,0,0,2.69-.48l.3,2.36a15.3,15.3,0,0,1-2,.4A14.48,14.48,0,0,1,134.55,248.21Z"/><path d="M149.2,248.21a7.32,7.32,0,0,1-5.31-1.81,6.88,6.88,0,0,1-1.87-5.2,7.62,7.62,0,0,1,1.58-5.13,5.66,5.66,0,0,1,4.49-1.82,5.42,5.42,0,0,1,4.22,1.65,7,7,0,0,1,1.49,4.8c0,.61,0,1.19-.08,1.72h-9.09a4,4,0,0,0,1.6,2.56,5.61,5.61,0,0,0,3.28.87,12.83,12.83,0,0,0,1.65-.1c.54-.06,1.09-.15,1.65-.26l.33,2.37a17.91,17.91,0,0,1-2.19.29C150.29,248.19,149.71,248.21,149.2,248.21Zm-1.09-11.6a3.25,3.25,0,0,0-2.49,1,4.47,4.47,0,0,0-1.09,2.78h6.83a4.09,4.09,0,0,0-.86-2.79A3,3,0,0,0,148.11,236.61Z"/><path d="M172.89,248v-2.42h4.2v-13.2h-4.2v-2.41h11v2.41h-4.23v13.2h4.23V248Z"/><path d="M188,248v-18h4.37q8.25,0,8.25,9.27,0,8.76-8.25,8.76Zm4.37-15.62h-1.83v13.2h1.83q5.6,0,5.59-6.34Q198,232.35,192.39,232.34Z"/><path d="M208.84,238a1.88,1.88,0,0,1-1.32-3.21,1.88,1.88,0,1,1,1.32,3.21Zm0,10.21a1.88,1.88,0,0,1-1.32-3.21,1.88,1.88,0,0,1,2.66,0,1.88,1.88,0,0,1-1.34,3.21Z"/><path d="M233.85,248V245.6h4.5V232.54L234.11,234v-2.57l4.24-1.52H241V245.6h4V248Z"/><path d="M249.09,248V245.6h4.49V232.54L249.34,234v-2.57l4.24-1.52h2.69V245.6h4V248Z"/><path d="M264.32,248V245.6h4.5V232.54L264.58,234v-2.57l4.24-1.52h2.69V245.6h4V248Z"/><path d="M279.56,248V245.6h4.49V232.54L279.81,234v-2.57l4.24-1.52h2.69V245.6h4V248Z"/><path d="M294.79,248V245.6h4.5V232.54L295.05,234v-2.57l4.24-1.52H302V245.6h4V248Z"/><path d="M310,248V245.6h4.49V232.54L310.28,234v-2.57l4.24-1.52h2.69V245.6h4V248Z"/><path d="M325.26,248V245.6h4.49V232.54L325.51,234v-2.57l4.24-1.52h2.7V245.6h4V248Z"/><path d="M340.5,248V245.6H345V232.54L340.75,234v-2.57l4.24-1.52h2.69V245.6h4V248Z"/><path d="M19,279.16l5.2-18h3.68l5.21,18H30.41l-1.18-4.4h-6.4l-1.18,4.4Zm6.93-15.85-2.44,9h5.1l-2.43-9Z"/><path d="M43.15,279.41a4.11,4.11,0,0,1-3.38-1.27,6.34,6.34,0,0,1-1-4.06V262.32h-4v-2.21h6.65V274a6.4,6.4,0,0,0,.2,1.74,1.6,1.6,0,0,0,.8,1,3.77,3.77,0,0,0,1.74.32,10,10,0,0,0,2.69-.48l.31,2.36a15.79,15.79,0,0,1-2,.4A14.44,14.44,0,0,1,43.15,279.41Z"/><path d="M58.81,279.41c-2,0-3.51-.42-4.42-1.27A5.31,5.31,0,0,1,53,274.08v-6.17H49.65V265.7H53v-4.06h2.69v4.06h6.12v2.21H55.71v6a3.06,3.06,0,0,0,.78,2.33,3.77,3.77,0,0,0,2.58.72,12.68,12.68,0,0,0,1.34-.07l1.63-.18.3,2.36c-.59.1-1.17.17-1.73.23S59.45,279.41,58.81,279.41Z"/><path d="M73,279.41a7.32,7.32,0,0,1-5.31-1.81,6.89,6.89,0,0,1-1.88-5.2,7.57,7.57,0,0,1,1.59-5.13,5.64,5.64,0,0,1,4.48-1.82,5.39,5.39,0,0,1,4.22,1.65,6.9,6.9,0,0,1,1.5,4.8c0,.61,0,1.19-.08,1.72H68.46a4,4,0,0,0,1.6,2.56,5.61,5.61,0,0,0,3.28.87A15.2,15.2,0,0,0,75,277q.81-.1,1.65-.27l.33,2.37a17.91,17.91,0,0,1-2.19.29C74.12,279.39,73.54,279.41,73,279.41Zm-1.09-11.6a3.25,3.25,0,0,0-2.49,1,4.47,4.47,0,0,0-1.09,2.78h6.83a4.1,4.1,0,0,0-.86-2.79A3,3,0,0,0,71.94,267.81Z"/><path d="M80.37,279.16V277h3v-9H80.88V265.7h4.67l.45,3.45h.31q.22-3.7,3.71-3.7a3.61,3.61,0,0,1,3,1.19A6.32,6.32,0,0,1,94,270.5H91.31a3.83,3.83,0,0,0-.44-2.12,1.58,1.58,0,0,0-1.41-.65,2.76,2.76,0,0,0-2.56,1.47,8.49,8.49,0,0,0-.84,4.17V277h3.3v2.21Z"/><path d="M96.72,279.16V265.7h2.44l.21,2.44h.3c.15-1.8,1.33-2.69,3.55-2.69a4.23,4.23,0,0,1,3.3,1.29,5.26,5.26,0,0,1,1.17,3.66v8.76H105V270.4a2.58,2.58,0,0,0-.64-1.88,2.33,2.33,0,0,0-1.77-.66q-3.18,0-3.18,3.73v7.57Z"/><path d="M115.71,279.41a5.21,5.21,0,0,1-3.44-1,3.5,3.5,0,0,1-1.23-2.87,3.81,3.81,0,0,1,1.56-3.28,7.33,7.33,0,0,1,4.41-1.14,9.65,9.65,0,0,1,2.66.32v-.73a2.2,2.2,0,0,0-.94-2,5.34,5.34,0,0,0-2.81-.68l-3.23-.09.25-2.39,2.72,0a7.73,7.73,0,0,1,5,1.44,5.06,5.06,0,0,1,1.62,4.06v5.61l2.28.28v2.16l-4.31.12-.13-3h-.27a3,3,0,0,1-1.23,2.33A4.9,4.9,0,0,1,115.71,279.41Zm.43-2.16a4,4,0,0,0,2-.43,3,3,0,0,0,1.17-1.1,2.74,2.74,0,0,0,.39-1.39v-.81a6.27,6.27,0,0,0-1.41-.22c-.47,0-1,0-1.43,0-2.17,0-3.25.67-3.25,2S114.43,277.25,116.14,277.25Z"/><path d="M135,279.41c-2,0-3.51-.42-4.42-1.27a5.31,5.31,0,0,1-1.37-4.06v-6.17h-3.37V265.7h3.37v-4.06h2.7v4.06H138v2.21h-6.11v6a3.06,3.06,0,0,0,.78,2.33,3.72,3.72,0,0,0,2.57.72,12.68,12.68,0,0,0,1.34-.07l1.63-.18.3,2.36c-.59.1-1.17.17-1.73.23S135.62,279.41,135,279.41Z"/><path d="M149.2,279.41a7.32,7.32,0,0,1-5.31-1.81,6.88,6.88,0,0,1-1.87-5.2,7.62,7.62,0,0,1,1.58-5.13,5.66,5.66,0,0,1,4.49-1.82,5.42,5.42,0,0,1,4.22,1.65,7,7,0,0,1,1.49,4.8c0,.61,0,1.19-.08,1.72h-9.09a4,4,0,0,0,1.6,2.56,5.61,5.61,0,0,0,3.28.87,14.93,14.93,0,0,0,1.65-.09q.81-.1,1.65-.27l.33,2.37a17.91,17.91,0,0,1-2.19.29C150.29,279.39,149.71,279.41,149.2,279.41Zm-1.09-11.6a3.25,3.25,0,0,0-2.49,1,4.47,4.47,0,0,0-1.09,2.78h6.83a4.1,4.1,0,0,0-.86-2.79A3,3,0,0,0,148.11,267.81Z"/><path d="M172.89,279.16v-2.41h4.2V263.54h-4.2v-2.41h11v2.41h-4.23v13.21h4.23v2.41Z"/><path d="M188,279.16v-18h4.37q8.25,0,8.25,9.27,0,8.76-8.25,8.76Zm4.37-15.62h-1.83v13.21h1.83q5.6,0,5.59-6.35Q198,263.54,192.39,263.54Z"/><path d="M208.84,269.2a1.88,1.88,0,0,1-1.32-3.21,1.88,1.88,0,1,1,1.32,3.21Zm0,10.21a1.88,1.88,0,0,1-1.32-3.21,1.88,1.88,0,0,1,2.66,0,1.88,1.88,0,0,1-1.34,3.21Z"/><path d="M233,271.34V269h12.69v2.36Z"/></g></g></svg>